<svg xmlns="http://www.w3.org/2000/svg" width="512" height="512" viewBox="0 0 512 512">
  <defs>
    <filter id="custom-arrows-a">
      <feColorMatrix in="SourceGraphic" values="0 0 0 0 1.000000 0 0 0 0 1.000000 0 0 0 0 1.000000 0 0 0 1.000000 0"/>
    </filter>
  </defs>
  <g fill="none" fill-rule="evenodd" filter="url(#custom-arrows-a)">
    <path fill="#000" fill-rule="nonzero" d="M11.44 225.39L336.56 225.39C340.706504 225.38742 344.485424 223.011082 346.284179 219.275044 348.082933 215.539006 347.583887 211.102996 345 207.86L182.44 4.06C180.39264 1.49344455 177.288122-.00133928631 174.005-.00133928631 170.721878-.00133928631 167.61736 1.49344455 165.57 4.06L3 207.86C.416112605 211.102996-.0829331302 215.539006 1.7158212 219.275044 3.51457553 223.011082 7.29349632 225.38742 11.44 225.39zM336.56 286.61L11.44 286.61C7.29349632 286.61258 3.51457553 288.988918 1.7158212 292.724956-.0829331302 296.460994.416112605 300.897004 3 304.14L165.56 507.94C167.60736 510.506555 170.711878 512.001339 173.995 512.001339 177.278122 512.001339 180.38264 510.506555 182.43 507.94L345 304.14C347.582769 300.898415 348.0826 296.464701 346.286357 292.729453 344.490113 288.994205 340.714699 286.616413 336.57 286.61L336.56 286.61z" transform="rotate(-90 215 215)"/>
  </g>
</svg>
