<?xml version="1.0" encoding="iso-8859-1"?>
<!-- Generator: Adobe Illustrator 19.0.0, SVG Export Plug-In . SVG Version: 6.00 Build 0)  -->
<svg version="1.1" id="Capa_1" xmlns="http://www.w3.org/2000/svg" xmlns:xlink="http://www.w3.org/1999/xlink" x="0px" y="0px"
	 viewBox="0 0 384.974 384.974" style="enable-background:new 0 0 384.974 384.974;" xml:space="preserve">
<g>
	<g id="Double_Chevron">
		<path d="M381.463,183.891L273.166,75.631c-4.752-4.74-12.451-4.74-17.215,0c-4.752,4.74-4.752,12.439,0,17.179l99.707,99.671
			l-99.695,99.671c-4.752,4.74-4.752,12.439,0,17.191c4.752,4.74,12.463,4.74,17.215,0l108.297-108.261
			C386.143,196.391,386.143,188.571,381.463,183.891z"
      fill="#FFFFFF"/>
		<path d="M129.031,75.631c-4.752-4.74-12.463-4.74-17.215,0L3.519,183.891c-4.692,4.68-4.692,12.499,0,17.191l108.297,108.261
			c4.752,4.74,12.451,4.74,17.215,0c4.752-4.74,4.752-12.439,0-17.179l-99.707-99.683l99.695-99.671
			C133.783,88.07,133.783,80.371,129.031,75.631z"
      fill="#FFFFFF"
    />
	</g>
	<g>
	</g>
	<g>
	</g>
	<g>
	</g>
	<g>
	</g>
	<g>
	</g>
	<g>
	</g>
</g>
<g>
</g>
<g>
</g>
<g>
</g>
<g>
</g>
<g>
</g>
<g>
</g>
<g>
</g>
<g>
</g>
<g>
</g>
<g>
</g>
<g>
</g>
<g>
</g>
<g>
</g>
<g>
</g>
<g>
</g>
</svg>
