  <svg width="140" height="140" viewBox="0 0 140 140" fill="none" xmlns="http://www.w3.org/2000/svg">
<path d="M70 140C108.66 140 140 108.66 140 70C140 31.3401 108.66 0 70 0C31.3401 0 0 31.3401 0 70C0 108.66 31.3401 140 70 140Z" fill="#FAE64D"/>
<path d="M69.9999 37.1901C74.5537 37.1901 78.2453 33.4985 78.2453 28.9447C78.2453 24.3909 74.5537 20.6993 69.9999 20.6993C65.4461 20.6993 61.7545 24.3909 61.7545 28.9447C61.7545 33.4985 65.4461 37.1901 69.9999 37.1901Z" stroke="black" stroke-width="3" stroke-miterlimit="10" stroke-linecap="round" stroke-linejoin="round"/>
<path d="M59.3497 73.779C59.9509 70.0858 60.2086 66.4784 59.2638 63.9876C58.4049 61.8404 56.6871 60.6379 54.5398 59.8649L35.5582 53.7668C33.0675 52.9079 30.8343 51.5336 30.6625 48.8711C30.4908 45.3496 33.4969 43.1165 36.5889 43.9754C36.5889 43.9754 54.6257 50.3312 70 50.3312C85.3742 50.3312 103.239 43.9754 103.239 43.9754C106.932 42.9447 109.423 45.779 109.423 48.8711C109.423 51.7913 107.19 52.822 104.528 53.7668L86.4908 60.2944C84.8589 60.8956 82.1963 62.0981 81.1656 63.9876C79.9632 66.2208 80.1349 70.0858 80.7362 73.779L81.9386 79.8772L89.5828 113.46C90.184 116.123 88.2944 118.699 85.6319 119.129C82.9693 119.558 80.7362 117.755 79.9632 115.178L72.2331 91.3864C71.8895 90.2698 71.546 89.0674 71.2883 87.9508L70.0859 83.141L68.9693 87.6073C68.6257 88.9815 68.1963 90.4416 67.7668 91.8159L60.1227 115.178C59.2638 117.84 57.1165 119.644 54.454 119.129C51.7914 118.699 49.9018 115.951 50.503 113.46L58.1472 79.8772L59.3497 73.779Z" fill="#BFBFBF" stroke="black" stroke-width="3" stroke-miterlimit="10" stroke-linecap="round" stroke-linejoin="round"/>
</svg>
