<svg width="140" height="140" viewBox="0 0 140 140" fill="none" xmlns="http://www.w3.org/2000/svg">
<path d="M70 140C108.66 140 140 108.66 140 70C140 31.3401 108.66 0 70 0C31.3401 0 0 31.3401 0 70C0 108.66 31.3401 140 70 140Z" fill="#FAE64D"/>
<path d="M69.8282 28V112" stroke="black" stroke-width="3" stroke-linecap="round" stroke-linejoin="round"/>
<path d="M69.8282 82.7117C73.3385 82.7117 76.1841 79.8661 76.1841 76.3558C76.1841 72.8456 73.3385 70 69.8282 70C66.318 70 63.4724 72.8456 63.4724 76.3558C63.4724 79.8661 66.318 82.7117 69.8282 82.7117Z" fill="#FAE64D" stroke="black" stroke-width="3" stroke-miterlimit="10" stroke-linecap="round"/>
<path d="M88.8957 28V112" stroke="black" stroke-width="3" stroke-linecap="round" stroke-linejoin="round"/>
<path d="M88.8957 60.2944C92.4059 60.2944 95.2515 57.4488 95.2515 53.9386C95.2515 50.4284 92.4059 47.5828 88.8957 47.5828C85.3855 47.5828 82.5399 50.4284 82.5399 53.9386C82.5399 57.4488 85.3855 60.2944 88.8957 60.2944Z" fill="#BFBFBF" stroke="black" stroke-width="3" stroke-miterlimit="10" stroke-linecap="round"/>
<path d="M51.1043 28V112" stroke="black" stroke-width="3" stroke-linecap="round" stroke-linejoin="round"/>
<path d="M51.1043 103.153C54.6145 103.153 57.4601 100.308 57.4601 96.7976C57.4601 93.2874 54.6145 90.4418 51.1043 90.4418C47.5941 90.4418 44.7485 93.2874 44.7485 96.7976C44.7485 100.308 47.5941 103.153 51.1043 103.153Z" fill="#BFBFBF" stroke="black" stroke-width="3" stroke-miterlimit="10" stroke-linecap="round"/>
</svg>
