<svg width="140" height="140" viewBox="0 0 140 140" fill="none" xmlns="http://www.w3.org/2000/svg">
<path d="M70 139.401C108.66 139.401 140 108.195 140 69.7007C140 31.2061 108.66 0 70 0C31.3401 0 0 31.2061 0 69.7007C0 108.195 31.3401 139.401 70 139.401Z" fill="#FAE64D"/>
<path d="M46.96 89.9599C60.16 89.9599 67.12 83.1599 67.12 69.3199V32.9999H34.56V43.3999H54.24V70.0399C54.24 76.1999 51.52 79.3199 46.32 79.3199C42.32 79.3199 38.96 77.2399 35.92 73.1599L28.72 81.7999C32.8 87.0799 39.44 89.9599 46.96 89.9599Z" fill="#BFBFBF"/>
<path d="M67.12 32.9999H68.62C68.62 32.1714 67.9484 31.4999 67.12 31.4999V32.9999ZM34.56 32.9999V31.4999C33.7316 31.4999 33.06 32.1714 33.06 32.9999H34.56ZM34.56 43.3999H33.06C33.06 44.2283 33.7316 44.8999 34.56 44.8999V43.3999ZM54.24 43.3999H55.74C55.74 42.5714 55.0684 41.8999 54.24 41.8999V43.3999ZM35.92 73.1599L37.1228 72.2637C36.8483 71.8952 36.4201 71.6729 35.9608 71.6604C35.5015 71.6479 35.0618 71.8466 34.7677 72.1996L35.92 73.1599ZM28.72 81.7999L27.5677 80.8396C27.1174 81.3799 27.103 82.1605 27.5331 82.717L28.72 81.7999ZM46.96 91.4599C53.8026 91.4599 59.2905 89.6951 63.0569 85.8843C66.8202 82.0765 68.62 76.4733 68.62 69.3199H65.62C65.62 76.0064 63.9398 80.7232 60.9231 83.7755C57.9095 86.8246 53.3174 88.4599 46.96 88.4599V91.4599ZM68.62 69.3199V32.9999H65.62V69.3199H68.62ZM67.12 31.4999H34.56V34.4999H67.12V31.4999ZM33.06 32.9999V43.3999H36.06V32.9999H33.06ZM34.56 44.8999H54.24V41.8999H34.56V44.8999ZM52.74 43.3999V70.0399H55.74V43.3999H52.74ZM52.74 70.0399C52.74 72.9303 52.0979 74.8403 51.0916 76.0131C50.1211 77.1441 48.6115 77.8199 46.32 77.8199V80.8199C49.2285 80.8199 51.6789 79.9356 53.3684 77.9667C55.0221 76.0394 55.74 73.3095 55.74 70.0399H52.74ZM46.32 77.8199C42.9477 77.8199 39.9864 76.1069 37.1228 72.2637L34.7172 74.0561C37.9336 78.3729 41.6923 80.8199 46.32 80.8199V77.8199ZM34.7677 72.1996L27.5677 80.8396L29.8723 82.7602L37.0723 74.1202L34.7677 72.1996ZM27.5331 82.717C31.9479 88.4304 39.0654 91.4599 46.96 91.4599V88.4599C39.8146 88.4599 33.6521 85.7294 29.9069 80.8827L27.5331 82.717Z" fill="black"/>
<path d="M84.04 109.96C100.04 109.96 107.8 101.96 107.8 92.5999C107.8 72.0399 75.24 79.1599 75.24 68.8399C75.24 65.3199 78.2 62.4399 85.88 62.4399C90.84 62.4399 96.2 63.8799 101.4 66.8399L105.4 56.9999C100.2 53.7199 93 52.0399 85.96 52.0399C70.04 52.0399 62.36 59.9599 62.36 69.4799C62.36 90.2799 94.92 83.0799 94.92 93.5599C94.92 96.9999 91.8 99.5599 84.12 99.5599C77.4 99.5599 70.36 97.1599 65.64 93.7199L61.24 103.48C66.2 107.32 75.16 109.96 84.04 109.96Z" fill="#FAE64D"/>
<path d="M101.4 66.8399L100.658 68.1435C101.033 68.3572 101.483 68.3987 101.891 68.2572C102.299 68.1157 102.627 67.805 102.79 67.4047L101.4 66.8399ZM105.4 56.9999L106.79 57.5647C107.063 56.8915 106.815 56.1189 106.2 55.7312L105.4 56.9999ZM65.64 93.7199L66.5235 92.5077C66.1584 92.2416 65.6929 92.1542 65.2562 92.2698C64.8195 92.3854 64.4582 92.6916 64.2725 93.1034L65.64 93.7199ZM61.24 103.48L59.8725 102.863C59.5874 103.496 59.7732 104.241 60.3217 104.666L61.24 103.48ZM84.04 111.46C92.2773 111.46 98.5822 109.401 102.86 105.959C107.162 102.497 109.3 97.7235 109.3 92.5999H106.3C106.3 96.8363 104.558 100.742 100.98 103.621C97.3778 106.519 91.8027 108.46 84.04 108.46V111.46ZM109.3 92.5999C109.3 86.9825 107.04 83.1424 103.636 80.4829C100.322 77.8937 95.9901 76.4739 91.8914 75.4266C87.6442 74.3413 83.8065 73.679 80.8381 72.6044C79.3858 72.0787 78.3361 71.5143 77.664 70.8852C77.0427 70.3039 76.74 69.6704 76.74 68.8399H73.74C73.74 70.5894 74.4548 71.9908 75.6142 73.0758C76.7226 74.113 78.2167 74.846 79.8169 75.4253C82.9535 76.5607 87.2558 77.3385 91.1486 78.3332C95.1899 79.3658 98.9978 80.666 101.789 82.8469C104.49 84.9574 106.3 87.9372 106.3 92.5999H109.3ZM76.74 68.8399C76.74 67.5602 77.2476 66.4308 78.5255 65.5589C79.8766 64.6369 82.1929 63.9399 85.88 63.9399V60.9399C81.8871 60.9399 78.8834 61.6828 76.8345 63.0808C74.7124 64.5289 73.74 66.5995 73.74 68.8399H76.74ZM85.88 63.9399C90.5516 63.9399 95.6583 65.2975 100.658 68.1435L102.142 65.5363C96.7417 62.4622 91.1284 60.9399 85.88 60.9399V63.9399ZM102.79 67.4047L106.79 57.5647L104.01 56.435L100.01 66.275L102.79 67.4047ZM106.2 55.7312C100.7 52.2615 93.2011 50.5399 85.96 50.5399V53.5399C92.7989 53.5399 99.7004 55.1782 104.6 58.2686L106.2 55.7312ZM85.96 50.5399C77.7649 50.5399 71.4963 52.5783 67.2453 56.0247C62.9685 59.4921 60.86 64.288 60.86 69.4799H63.86C63.86 65.1517 65.5915 61.2276 69.1347 58.355C72.7037 55.4615 78.2351 53.5399 85.96 53.5399V50.5399ZM60.86 69.4799C60.86 75.1504 63.1142 79.0294 66.5171 81.7202C69.831 84.3407 74.1642 85.7793 78.2636 86.8419C80.3154 87.3737 82.399 87.8321 84.2695 88.2787C86.1713 88.7328 87.8776 89.1799 89.3143 89.7088C90.7649 90.2428 91.8142 90.8163 92.4872 91.4563C93.1104 92.049 93.42 92.7011 93.42 93.5599H96.42C96.42 91.7986 95.7121 90.3833 94.5547 89.2825C93.447 88.2291 91.9526 87.4832 90.3507 86.8935C88.7349 86.2986 86.8799 85.8176 84.9661 85.3607C83.021 84.8964 81.0346 84.461 79.0164 83.9379C74.9758 82.8905 71.169 81.5741 68.3779 79.367C65.6758 77.2304 63.86 74.2094 63.86 69.4799H60.86ZM93.42 93.5599C93.42 94.7399 92.9267 95.7651 91.6143 96.5721C90.2121 97.4344 87.8326 98.0599 84.12 98.0599V101.06C88.0874 101.06 91.1079 100.405 93.1857 99.1276C95.3533 97.7947 96.42 95.8198 96.42 93.5599H93.42ZM84.12 98.0599C77.7121 98.0599 70.9825 95.7575 66.5235 92.5077L64.7565 94.9321C69.7375 98.5623 77.0879 101.06 84.12 101.06V98.0599ZM64.2725 93.1034L59.8725 102.863L62.6075 104.096L67.0075 94.3364L64.2725 93.1034ZM60.3217 104.666C65.6217 108.769 74.9404 111.46 84.04 111.46V108.46C75.3796 108.46 66.7783 105.871 62.1583 102.294L60.3217 104.666Z" fill="black"/>
</svg>
