<svg width="140" height="140" viewBox="0 0 140 140" fill="none" xmlns="http://www.w3.org/2000/svg">
<path d="M70 140C108.66 140 140 108.66 140 70C140 31.3401 108.66 0 70 0C31.3401 0 0 31.3401 0 70C0 108.66 31.3401 140 70 140Z" fill="#FAE64D"/>
<path d="M96.3681 107.104C96.3681 111.313 92.9325 114.749 88.7239 114.749H51.3619C47.1534 114.749 43.7178 111.313 43.7178 107.104V32.8958C43.7178 28.6872 47.1534 25.2516 51.3619 25.2516H88.7239C92.9325 25.2516 96.3681 28.6872 96.3681 32.8958V107.104Z" fill="#BFBFBF"/>
<path d="M90.184 88.3803C100.051 88.3803 108.049 80.3819 108.049 70.5153C108.049 60.6487 100.051 52.6503 90.184 52.6503C80.3174 52.6503 72.319 60.6487 72.319 70.5153C72.319 80.3819 80.3174 88.3803 90.184 88.3803Z" fill="#FAE64D"/>
<path d="M96.3681 88.724V107.104C96.3681 111.313 92.9325 114.749 88.7239 114.749H51.3619C47.1534 114.749 43.7178 111.313 43.7178 107.104V32.8958C43.7178 28.6872 47.1534 25.2516 51.3619 25.2516H88.7239C92.9325 25.2516 96.3681 28.6872 96.3681 32.8958V52.2209" stroke="black" stroke-width="3" stroke-miterlimit="10" stroke-linecap="round"/>
<path d="M70.0859 110.11C73.4064 110.11 76.0981 107.419 76.0981 104.098C76.0981 100.778 73.4064 98.0859 70.0859 98.0859C66.7654 98.0859 64.0736 100.778 64.0736 104.098C64.0736 107.419 66.7654 110.11 70.0859 110.11Z" fill="#FAE64D" stroke="black" stroke-width="3" stroke-miterlimit="10" stroke-linecap="round"/>
<path d="M62.7853 30.8344H77.3006" stroke="black" stroke-width="3" stroke-miterlimit="10" stroke-linecap="round"/>
<path d="M108.564 65.362C108.994 66.9939 109.252 68.7117 109.252 70.5154C109.252 81.0798 100.663 89.5828 90.1841 89.5828C79.7055 89.5828 71.1166 80.9939 71.1166 70.5154C71.1166 60.0368 79.7055 51.4479 90.1841 51.4479C94.4785 51.4479 98.3436 52.8221 101.521 55.227" stroke="black" stroke-width="3" stroke-miterlimit="10" stroke-linecap="round"/>
<path d="M80.0491 64.4173L89.9264 78.4173L110.969 52.6504" stroke="black" stroke-width="3" stroke-miterlimit="10" stroke-linecap="round" stroke-linejoin="round"/>
</svg>
