<svg width="140" height="140" viewBox="0 0 140 140" fill="none" xmlns="http://www.w3.org/2000/svg">
<path d="M70 140C108.66 140 140 108.66 140 70C140 31.3401 108.66 0 70 0C31.3401 0 0 31.3401 0 70C0 108.66 31.3401 140 70 140Z" fill="#FAE64D"/>
<path d="M61.497 43.2884L59.3497 34.7853C58.5767 31.6933 55.7424 29.546 52.5644 29.546H32.8098C28.9448 29.546 25.8528 32.638 25.8528 36.5031V43.2884V45.3497V103.325C25.8528 107.19 28.9448 110.282 32.8098 110.282H107.19C111.055 110.282 114.147 107.19 114.147 103.325V50.3313C114.147 46.4663 111.055 43.3742 107.19 43.3742H61.497V43.2884Z" fill="#BFBFBF" stroke="black" stroke-width="3" stroke-miterlimit="10" stroke-linecap="round" stroke-linejoin="round"/>
<path d="M82.8834 91.3865V91.1288C82.8834 90.957 82.7975 90.7852 82.7975 90.6135L79.0184 73.6932C78.8466 72.8343 78.0736 72.319 77.3006 72.319H67.1656C66.3067 72.319 65.6196 72.9202 65.3619 73.7791L61.7546 90.8711C61.7546 90.957 61.7546 91.0429 61.6687 91.1288L61.5828 91.3865C61.4969 91.9877 61.411 92.503 61.411 93.1042C61.411 99.0306 66.2208 103.926 72.2331 103.926C78.1595 103.926 83.0552 99.1165 83.0552 93.1042C83.0552 92.503 82.9693 91.9018 82.8834 91.3865Z" fill="#FAE64D" stroke="black" stroke-width="3" stroke-miterlimit="10" stroke-linecap="round" stroke-linejoin="round"/>
<path d="M72.2331 97.7423C74.7946 97.7423 76.8712 95.6657 76.8712 93.1042C76.8712 90.5427 74.7946 88.4662 72.2331 88.4662C69.6716 88.4662 67.5951 90.5427 67.5951 93.1042C67.5951 95.6657 69.6716 97.7423 72.2331 97.7423Z" fill="#BFBFBF" stroke="black" stroke-width="3" stroke-miterlimit="10" stroke-linecap="round" stroke-linejoin="round"/>
<path d="M70.8589 72.2332H66.5644C65.8773 72.2332 65.3619 71.7178 65.3619 71.0307V67.7669C65.3619 67.0798 65.8773 66.5645 66.5644 66.5645H70.8589C71.546 66.5645 72.0613 67.0798 72.0613 67.7669V71.0307C72.0613 71.7178 71.546 72.2332 70.8589 72.2332Z" fill="black"/>
<path d="M77.5582 66.7362H73.2637C72.5766 66.7362 72.0613 66.2209 72.0613 65.5338V62.27C72.0613 61.5828 72.5766 61.0675 73.2637 61.0675H77.5582C78.2453 61.0675 78.7607 61.5828 78.7607 62.27V65.5338C78.7607 66.2209 78.1594 66.7362 77.5582 66.7362Z" fill="black"/>
<path d="M70.8589 61.0675H66.5644C65.8773 61.0675 65.3619 60.5522 65.3619 59.8651V56.6013C65.3619 55.9141 65.8773 55.3988 66.5644 55.3988H70.8589C71.546 55.3988 72.0613 55.9141 72.0613 56.6013V59.8651C72.0613 60.4663 71.546 61.0675 70.8589 61.0675Z" fill="black"/>
<path d="M77.5582 55.5706H73.2637C72.5766 55.5706 72.0613 55.0552 72.0613 54.3681V51.1043C72.0613 50.4172 72.5766 49.9019 73.2637 49.9019H77.5582C78.2453 49.9019 78.7607 50.4172 78.7607 51.1043V54.3681C78.7607 54.9693 78.1594 55.5706 77.5582 55.5706Z" fill="black"/>
<path d="M70.8589 49.8159H66.5644C65.8773 49.8159 65.3619 49.3006 65.3619 48.6135V45.3497C65.3619 44.6626 65.8773 44.1472 66.5644 44.1472H70.8589C71.546 44.1472 72.0613 44.6626 72.0613 45.3497V48.6135C72.0613 49.3006 71.546 49.8159 70.8589 49.8159Z" fill="black"/>
</svg>
