<svg width="177" height="86" viewBox="0 0 177 86" fill="none" xmlns="http://www.w3.org/2000/svg">
<g clip-path="url(#clip0_2_320)">
<path d="M1.12866 44.0568C1.12866 39.3377 4.6649 36.0155 9.63068 36.0155C12.6779 36.0155 15.1231 37.2991 16.327 39.6775L13.5055 41.3386C12.565 39.8285 11.1731 39.149 9.59306 39.149C6.88445 39.149 4.853 41.0366 4.853 44.0568C4.853 47.1147 6.92207 48.9646 9.59306 48.9646C11.1355 48.9646 12.565 48.285 13.5055 46.7749L16.327 48.436C15.1231 50.7767 12.6779 52.1358 9.63068 52.1358C4.62728 52.1358 1.12866 48.7758 1.12866 44.0568Z" fill="black"/>
<path d="M17.9446 44.0568C17.9446 39.3377 21.4808 36.0155 26.2961 36.0155C31.1867 36.0155 34.6477 39.3377 34.6477 44.0568C34.6477 48.7758 31.149 52.1358 26.2961 52.1358C21.4432 52.1358 17.9446 48.7758 17.9446 44.0568ZM30.9233 44.0568C30.9233 41.0366 28.9295 39.149 26.2585 39.149C23.6251 39.149 21.6313 41.0743 21.6313 44.0568C21.6313 47.0392 23.6251 48.9646 26.2585 48.9646C28.9295 48.9646 30.9233 47.077 30.9233 44.0568Z" fill="black"/>
<path d="M64.3671 42.9242V51.947H60.6804V43.415C60.6804 40.6213 59.4013 39.2622 57.1441 39.2622C54.7365 39.2622 53.0812 40.8478 53.0812 43.9813V51.947H49.3945V43.415C49.3945 40.6213 48.1154 39.2622 45.8583 39.2622C43.413 39.2622 41.7954 40.8478 41.7954 43.9813V51.947H38.1086V36.2043H41.6073V38.2051C42.7735 36.8083 44.6168 36.0155 46.7611 36.0155C49.0559 36.0155 50.9745 36.8838 52.0279 38.6204C53.3069 36.9971 55.4136 36.0155 57.8965 36.0155C61.7337 36.0155 64.3671 38.1674 64.3671 42.9242Z" fill="black"/>
<path d="M85.735 44.0567C85.735 48.9645 82.3493 52.1357 77.7973 52.1357C75.8035 52.1357 74.0353 51.4562 72.7939 50.0216V57.6476H69.1072V36.2042H72.6058V38.2806C73.8472 36.7705 75.653 36.0532 77.7973 36.0532C82.3493 36.0154 85.735 39.1866 85.735 44.0567ZM81.9731 44.0567C81.9731 41.0365 79.9792 39.1489 77.3459 39.1489C74.7125 39.1489 72.681 41.0743 72.681 44.0567C72.681 47.0391 74.7125 48.9645 77.3459 48.9645C79.9792 48.9645 81.9731 47.0769 81.9731 44.0567Z" fill="black"/>
<path d="M102.137 42.6981V51.9097H98.6762V49.9843C97.8109 51.3434 96.0804 52.0985 93.748 52.0985C90.1742 52.0985 87.917 50.1353 87.917 47.3794C87.917 44.7745 89.6851 42.6981 94.4252 42.6981H98.4881V42.4716C98.4881 40.3197 97.209 39.0361 94.5757 39.0361C92.8075 39.0361 91.0018 39.6402 89.8356 40.584L88.406 37.9036C90.0613 36.62 92.5066 35.9404 95.0271 35.9404C99.5038 36.0159 102.137 38.1678 102.137 42.6981ZM98.4505 47.0019V45.1898H94.6509C92.168 45.1898 91.4908 46.1336 91.4908 47.2662C91.4908 48.5875 92.6194 49.4558 94.5004 49.4558C96.2685 49.4558 97.8486 48.6252 98.4505 47.0019Z" fill="black"/>
<path d="M115.906 36.0155V39.5265C115.567 39.451 115.304 39.451 115.041 39.451C112.257 39.451 110.489 41.1121 110.489 44.321V51.947H106.84V36.2043H110.338V38.5072C111.392 36.8461 113.273 36.0155 115.906 36.0155Z" fill="black"/>
<path d="M118.502 31.3719C118.502 30.1261 119.517 29.1445 120.834 29.1445C122.188 29.1445 123.167 30.0506 123.167 31.2587C123.167 32.5423 122.188 33.5616 120.834 33.5616C119.517 33.5993 118.502 32.6178 118.502 31.3719ZM118.991 36.2042H122.677V51.947H118.991V36.2042Z" fill="black"/>
<path d="M125.687 50.3614L127.079 47.5677C128.471 48.4738 130.578 49.1156 132.534 49.1156C134.866 49.1156 135.807 48.4738 135.807 47.379C135.807 44.3588 126.101 47.1902 126.101 40.9233C126.101 37.9409 128.772 36.0155 132.985 36.0155C135.054 36.0155 137.462 36.5063 138.854 37.3746L137.462 40.1683C135.957 39.3 134.452 38.9979 132.985 38.9979C130.766 38.9979 129.712 39.753 129.712 40.7723C129.712 43.9435 139.418 41.1121 139.418 47.2657C139.418 50.2104 136.71 52.1358 132.308 52.1358C129.712 52.1358 127.117 51.343 125.687 50.3614Z" fill="black"/>
<path d="M141.299 44.0568C141.299 39.3377 144.835 36.0155 149.651 36.0155C154.541 36.0155 158.002 39.3377 158.002 44.0568C158.002 48.7758 154.504 52.1358 149.651 52.1358C144.835 52.1358 141.299 48.7758 141.299 44.0568ZM154.315 44.0568C154.315 41.0366 152.322 39.149 149.651 39.149C147.017 39.149 145.023 41.0743 145.023 44.0568C145.023 47.0392 147.017 48.9646 149.651 48.9646C152.322 48.9646 154.315 47.077 154.315 44.0568Z" fill="black"/>
<path d="M177 42.9242V51.947H173.313V43.415C173.313 40.6213 171.921 39.2622 169.589 39.2622C166.993 39.2622 165.225 40.8478 165.225 44.019V51.9848H161.538V36.2043H165.037V38.2429C166.241 36.8083 168.159 36.0155 170.454 36.0155C174.179 36.0155 177 38.1674 177 42.9242Z" fill="black"/>
<path d="M17.5307 6.11589V0L0 10.1932V13.6286V16.2713V19.7068L17.5307 29.8999V23.784L2.25717 14.95L17.5307 6.11589Z" fill="#FAE64D"/>
<path d="M159.093 62.1777V56.0996L176.624 66.2928V69.7282V72.3709V75.8064L159.093 85.9995V79.8836L174.367 71.0496L159.093 62.1777Z" fill="#FAE64D"/>
<path d="M62.2228 69.0115H70.311V72.0694H62.2228V69.0115Z" fill="black"/>
<path d="M72.5305 77.166L73.9224 74.3723C75.3144 75.2784 77.4211 75.9202 79.3773 75.9202C81.7097 75.9202 82.6502 75.2784 82.6502 74.1835C82.6502 71.1634 72.9443 73.9948 72.9443 67.7279C72.9443 64.7454 75.6153 62.8201 79.8287 62.8201C81.8978 62.8201 84.3054 63.3109 85.6974 64.1792L84.3054 66.9728C82.8007 66.1045 81.2959 65.8025 79.8287 65.8025C77.6092 65.8025 76.5558 66.5576 76.5558 67.5769C76.5558 70.7481 86.2617 67.9166 86.2617 74.0703C86.2617 77.015 83.553 78.9404 79.1516 78.9404C76.5558 78.9404 73.9601 78.1853 72.5305 77.166Z" fill="black"/>
<path d="M89.4594 56.8551H93.1461V78.7137H89.4594V56.8551Z" fill="black"/>
<path d="M97.4347 58.1765C97.4347 56.9307 98.4504 55.9491 99.7671 55.9491C101.121 55.9491 102.1 56.8552 102.1 58.0632C102.1 59.3468 101.121 60.3661 99.7671 60.3661C98.4128 60.4039 97.4347 59.4223 97.4347 58.1765ZM97.9237 63.0088H101.61V78.7516H97.9237V63.0088Z" fill="black"/>
<path d="M121.775 56.8551V78.7138H118.238V76.6752C116.997 78.1853 115.191 78.9025 113.047 78.9025C108.495 78.9025 105.109 75.7313 105.109 70.8235C105.109 65.9157 108.495 62.7823 113.047 62.7823C115.078 62.7823 116.846 63.4618 118.088 64.8964V56.8174H121.775V56.8551ZM118.163 70.8613C118.163 67.8411 116.132 65.9535 113.498 65.9535C110.865 65.9535 108.833 67.8788 108.833 70.8613C108.833 73.8437 110.865 75.7691 113.498 75.7691C116.132 75.7691 118.163 73.8815 118.163 70.8613Z" fill="black"/>
<path d="M141.262 72.0317H128.96C129.411 74.3346 131.292 75.8069 134.039 75.8069C135.807 75.8069 137.161 75.2406 138.29 74.108L140.246 76.3732C138.854 78.0343 136.634 78.9404 133.926 78.9404C128.659 78.9404 125.273 75.5426 125.273 70.8613C125.273 66.18 128.697 62.8201 133.361 62.8201C137.951 62.8201 141.299 66.029 141.299 70.9368C141.299 71.2389 141.299 71.6919 141.262 72.0317ZM128.922 69.5778H137.801C137.5 67.3126 135.769 65.7648 133.361 65.7648C131.029 65.7648 129.298 67.3126 128.922 69.5778Z" fill="black"/>
<path d="M153.902 62.8201V66.331C153.563 66.2555 153.3 66.2555 153.036 66.2555C150.253 66.2555 148.484 67.9166 148.484 71.1256V78.7516H144.835V63.0088H148.334V65.3117C149.387 63.6506 151.306 62.8201 153.902 62.8201Z" fill="black"/>
<path d="M25.2427 4.60532C25.2427 3.35949 26.2584 2.37793 27.5751 2.37793C28.9294 2.37793 29.9075 3.28399 29.9075 4.49206C29.9075 5.77565 28.9294 6.79496 27.5751 6.79496C26.2584 6.83271 25.2427 5.85115 25.2427 4.60532ZM25.7317 9.39988H29.4184V25.1426H25.7317V9.39988Z" fill="black"/>
<path d="M60.4546 16.1198V25.1426H56.7679V16.6105C56.7679 13.8169 55.4888 12.4578 53.2316 12.4578C50.824 12.4578 49.1687 14.0434 49.1687 17.1768V25.1426H45.5196V16.6105C45.5196 13.8169 44.2406 12.4578 41.9834 12.4578C39.5381 12.4578 37.9205 14.0434 37.9205 17.1768V25.1426H34.2338V9.39982H37.7324V11.4007C38.8986 10.0039 40.7419 9.21106 42.8863 9.21106C45.1811 9.21106 47.0997 10.0794 48.153 11.816C49.4321 10.1926 51.5388 9.21106 54.0217 9.21106C57.8212 9.24881 60.4546 11.3629 60.4546 16.1198Z" fill="black"/>
<path d="M80.8444 9.39982V22.7264C80.8444 28.427 77.8725 31.032 72.38 31.032C69.4457 31.032 66.549 30.2769 64.7432 28.8046L66.3985 26.0486C67.7904 27.1812 70.01 27.9363 72.1919 27.9363C75.6529 27.9363 77.1953 26.3507 77.1953 23.1795V22.3489C75.9162 23.7457 74.0729 24.4253 71.9286 24.4253C67.4518 24.4253 63.9908 21.3673 63.9908 16.7993C63.9908 12.2313 67.4142 9.21106 71.9286 9.21106C74.1481 9.21106 76.0667 9.92836 77.3458 11.4762V9.39982H80.8444ZM77.2329 16.7993C77.2329 14.1566 75.2391 12.3445 72.4929 12.3445C69.709 12.3445 67.7152 14.1566 67.7152 16.7993C67.7152 19.4797 69.709 21.2918 72.4929 21.2918C75.2391 21.2918 77.2329 19.4797 77.2329 16.7993Z" fill="black"/>
<path d="M84.8696 15.4025H92.9578V18.4982H84.8696V15.4025Z" fill="black"/>
</g>
<defs>
<clipPath id="clip0_2_320">
<rect width="177" height="86" fill="white"/>
</clipPath>
</defs>
</svg>
