<?xml version="1.0" encoding="UTF-8"?>
<svg width="345px" height="345px" viewBox="0 0 345 345" version="1.1" xmlns="http://www.w3.org/2000/svg" xmlns:xlink="http://www.w3.org/1999/xlink">
  <title>Combined Shape</title>
  <g id="Page-1" stroke="none" stroke-width="1" fill="none" fill-rule="evenodd">
    <path d="M172.5,0 C267.769119,0 345,77.2308807 345,172.5 C345,267.769119 267.769119,345 172.5,345 C77.2308807,345 9.09494702e-13,267.769119 9.09494702e-13,172.5 C9.09494702e-13,77.2308807 77.2308807,0 172.5,0 Z M127.074385,80.0118414 L126.765789,80.3152986 L46.2689315,161.482563 C39.99746,167.733739 39.9115494,177.896389 46.0111998,184.320117 L46.2689315,184.585588 L126.765789,265.684701 C136.877953,275.872522 154.150332,268.827408 154.494769,254.534442 L154.5,254.099114 L154.5,91.9008863 C154.5,77.462518 137.328742,70.1711421 127.074385,80.0118414 Z M219.234211,80.3152986 C209.019904,70.0245708 191.5,77.3166759 191.5,91.9008863 L191.5,91.9008863 L191.5,254.099114 C191.5,268.683324 209.019904,275.975429 219.234211,265.684701 L219.234211,265.684701 L299.731069,184.517437 C306.089644,178.179439 306.089644,167.820561 299.731069,161.414412 L299.731069,161.414412 Z" id="Combined-Shape" fill="#FFFFFF"></path>
  </g>
</svg>
