<svg width="1312" height="483" viewBox="0 0 1312 483" fill="none" xmlns="http://www.w3.org/2000/svg">
<rect width="1920" height="921" transform="translate(-304 -90)" fill="white"/>
<path d="M812.231 495H931.231L712.131 4.99997H600.131L381.731 495H497.931L541.331 390H768.831L812.231 495ZM577.731 303.9L655.431 116.3L733.131 303.9H577.731Z" fill="#FAE64D"/>
<path d="M757.293 180.819C762.795 180.819 767.686 181.954 771.965 184.225C776.332 186.408 779.738 189.814 782.183 194.443C784.716 199.072 785.982 205.054 785.982 212.39V253H761.092V216.451C761.092 211.386 760.132 207.718 758.21 205.447C756.289 203.089 753.669 201.91 750.35 201.91C747.992 201.91 745.853 202.478 743.931 203.613C742.01 204.748 740.525 206.495 739.477 208.853C738.429 211.124 737.905 214.093 737.905 217.761V253H713.015V216.451C713.015 211.386 712.055 207.718 710.133 205.447C708.299 203.089 705.679 201.91 702.273 201.91C699.828 201.91 697.645 202.478 695.723 203.613C693.889 204.748 692.405 206.495 691.269 208.853C690.221 211.124 689.697 214.093 689.697 217.761V253H664.807V181.998H688.518V201.779L683.802 196.146C686.422 191.081 690.003 187.282 694.544 184.749C699.086 182.129 704.151 180.819 709.74 180.819C716.116 180.819 721.705 182.478 726.508 185.797C731.399 189.028 734.674 194.094 736.333 200.993L728.211 199.29C730.744 193.526 734.543 189.028 739.608 185.797C744.761 182.478 750.656 180.819 757.293 180.819ZM846.363 254.179C840.337 254.179 835.185 252.869 830.905 250.249C826.626 247.542 823.351 243.524 821.08 238.197C818.897 232.782 817.805 225.883 817.805 217.499C817.805 209.028 818.853 202.128 820.949 196.801C823.045 191.386 826.189 187.369 830.381 184.749C834.661 182.129 839.988 180.819 846.363 180.819C852.826 180.819 858.677 182.347 863.917 185.404C869.245 188.373 873.437 192.609 876.493 198.111C879.637 203.526 881.209 209.988 881.209 217.499C881.209 225.01 879.637 231.516 876.493 237.018C873.437 242.52 869.245 246.756 863.917 249.725C858.677 252.694 852.826 254.179 846.363 254.179ZM801.692 278.414V181.998H825.403V194.05L825.272 217.499L826.582 241.079V278.414H801.692ZM841.123 234.398C843.918 234.398 846.407 233.743 848.59 232.433C850.861 231.123 852.651 229.202 853.961 226.669C855.359 224.136 856.057 221.08 856.057 217.499C856.057 213.918 855.359 210.862 853.961 208.329C852.651 205.796 850.861 203.875 848.59 202.565C846.407 201.255 843.918 200.6 841.123 200.6C838.329 200.6 835.796 201.255 833.525 202.565C831.342 203.875 829.552 205.796 828.154 208.329C826.844 210.862 826.189 213.918 826.189 217.499C826.189 221.08 826.844 224.136 828.154 226.669C829.552 229.202 831.342 231.123 833.525 232.433C835.796 233.743 838.329 234.398 841.123 234.398ZM928.41 254.179C920.637 254.179 913.738 252.607 907.712 249.463C901.686 246.319 896.926 241.996 893.433 236.494C890.027 230.905 888.324 224.529 888.324 217.368C888.324 210.207 890.027 203.875 893.433 198.373C896.926 192.871 901.686 188.592 907.712 185.535C913.738 182.391 920.637 180.819 928.41 180.819C936.183 180.819 943.082 182.391 949.108 185.535C955.221 188.592 959.981 192.871 963.387 198.373C966.793 203.875 968.496 210.207 968.496 217.368C968.496 224.529 966.793 230.905 963.387 236.494C959.981 241.996 955.221 246.319 949.108 249.463C943.082 252.607 936.183 254.179 928.41 254.179ZM928.41 234.398C931.292 234.398 933.825 233.743 936.008 232.433C938.279 231.123 940.069 229.202 941.379 226.669C942.689 224.049 943.344 220.949 943.344 217.368C943.344 213.787 942.689 210.774 941.379 208.329C940.069 205.796 938.279 203.875 936.008 202.565C933.825 201.255 931.292 200.6 928.41 200.6C925.615 200.6 923.083 201.255 920.812 202.565C918.629 203.875 916.838 205.796 915.441 208.329C914.131 210.774 913.476 213.787 913.476 217.368C913.476 220.949 914.131 224.049 915.441 226.669C916.838 229.202 918.629 231.123 920.812 232.433C923.083 233.743 925.615 234.398 928.41 234.398ZM1026.27 180.819C1031.77 180.819 1036.75 181.954 1041.2 184.225C1045.66 186.408 1049.15 189.814 1051.68 194.443C1054.3 199.072 1055.61 205.054 1055.61 212.39V253H1030.72V216.451C1030.72 211.386 1029.68 207.718 1027.58 205.447C1025.57 203.089 1022.73 201.91 1019.06 201.91C1016.44 201.91 1014.04 202.521 1011.86 203.744C1009.68 204.879 1007.97 206.67 1006.75 209.115C1005.53 211.56 1004.92 214.748 1004.92 218.678V253H980.026V181.998H1003.74V202.172L999.152 196.277C1001.86 191.124 1005.57 187.282 1010.29 184.749C1015 182.129 1020.33 180.819 1026.27 180.819ZM1109.34 254.179C1100.96 254.179 1093.62 252.607 1087.33 249.463C1081.13 246.232 1076.28 241.865 1072.79 236.363C1069.38 230.774 1067.68 224.442 1067.68 217.368C1067.68 210.294 1069.34 204.006 1072.66 198.504C1076.07 192.915 1080.74 188.592 1086.68 185.535C1092.62 182.391 1099.3 180.819 1106.72 180.819C1113.71 180.819 1120.08 182.26 1125.85 185.142C1131.61 187.937 1136.19 192.085 1139.6 197.587C1143.01 203.089 1144.71 209.77 1144.71 217.63C1144.71 218.503 1144.67 219.508 1144.58 220.643C1144.49 221.778 1144.4 222.826 1144.32 223.787H1088.12V210.687H1131.09L1121.65 214.355C1121.74 211.124 1121.13 208.329 1119.82 205.971C1118.6 203.613 1116.85 201.779 1114.58 200.469C1112.4 199.159 1109.82 198.504 1106.85 198.504C1103.88 198.504 1101.26 199.159 1098.99 200.469C1096.81 201.779 1095.1 203.657 1093.88 206.102C1092.66 208.46 1092.05 211.255 1092.05 214.486V218.285C1092.05 221.778 1092.75 224.791 1094.14 227.324C1095.63 229.857 1097.72 231.822 1100.43 233.219C1103.14 234.529 1106.37 235.184 1110.13 235.184C1113.62 235.184 1116.59 234.704 1119.03 233.743C1121.57 232.695 1124.06 231.123 1126.5 229.027L1139.6 242.651C1136.19 246.406 1132 249.288 1127.02 251.297C1122.05 253.218 1116.15 254.179 1109.34 254.179ZM1202.43 180.819C1207.93 180.819 1212.91 181.954 1217.36 184.225C1221.82 186.408 1225.31 189.814 1227.84 194.443C1230.46 199.072 1231.77 205.054 1231.77 212.39V253H1206.88V216.451C1206.88 211.386 1205.83 207.718 1203.74 205.447C1201.73 203.089 1198.89 201.91 1195.22 201.91C1192.6 201.91 1190.2 202.521 1188.02 203.744C1185.84 204.879 1184.13 206.67 1182.91 209.115C1181.69 211.56 1181.08 214.748 1181.08 218.678V253H1156.19V181.998H1179.9V202.172L1175.31 196.277C1178.02 191.124 1181.73 187.282 1186.45 184.749C1191.16 182.129 1196.49 180.819 1202.43 180.819ZM1279.1 254.179C1270.02 254.179 1262.94 251.952 1257.88 247.498C1252.81 242.957 1250.28 236.145 1250.28 227.062V166.147H1275.17V226.8C1275.17 229.333 1275.87 231.341 1277.27 232.826C1278.66 234.223 1280.45 234.922 1282.64 234.922C1285.61 234.922 1288.14 234.18 1290.24 232.695L1296.39 250.118C1294.3 251.515 1291.72 252.52 1288.66 253.131C1285.61 253.83 1282.42 254.179 1279.1 254.179ZM1239.93 203.22V184.618H1291.42V203.22H1239.93Z" fill="black"/>
<path d="M528.889 254.834C521.64 254.834 514.916 253.699 508.715 251.428C502.602 249.07 497.274 245.751 492.733 241.472C488.279 237.193 484.786 232.171 482.253 226.407C479.72 220.556 478.454 214.137 478.454 207.15C478.454 200.163 479.72 193.788 482.253 188.024C484.786 182.173 488.279 177.107 492.733 172.828C497.274 168.549 502.602 165.274 508.715 163.003C514.916 160.645 521.64 159.466 528.889 159.466C537.36 159.466 544.915 160.951 551.552 163.92C558.277 166.889 563.866 171.169 568.32 176.758L551.814 191.692C548.845 188.199 545.57 185.535 541.989 183.701C538.496 181.867 534.566 180.95 530.199 180.95C526.444 180.95 522.994 181.561 519.85 182.784C516.706 184.007 513.999 185.797 511.728 188.155C509.545 190.426 507.798 193.177 506.488 196.408C505.265 199.639 504.654 203.22 504.654 207.15C504.654 211.08 505.265 214.661 506.488 217.892C507.798 221.123 509.545 223.918 511.728 226.276C513.999 228.547 516.706 230.293 519.85 231.516C522.994 232.739 526.444 233.35 530.199 233.35C534.566 233.35 538.496 232.433 541.989 230.599C545.57 228.765 548.845 226.101 551.814 222.608L568.32 237.542C563.866 243.044 558.277 247.323 551.552 250.38C544.915 253.349 537.36 254.834 528.889 254.834ZM612.035 254.179C604.262 254.179 597.363 252.607 591.337 249.463C585.311 246.319 580.551 241.996 577.058 236.494C573.652 230.905 571.949 224.529 571.949 217.368C571.949 210.207 573.652 203.875 577.058 198.373C580.551 192.871 585.311 188.592 591.337 185.535C597.363 182.391 604.262 180.819 612.035 180.819C619.808 180.819 626.707 182.391 632.733 185.535C638.846 188.592 643.606 192.871 647.012 198.373C650.418 203.875 652.121 210.207 652.121 217.368C652.121 224.529 650.418 230.905 647.012 236.494C643.606 241.996 638.846 246.319 632.733 249.463C626.707 252.607 619.808 254.179 612.035 254.179ZM612.035 234.398C614.917 234.398 617.45 233.743 619.633 232.433C621.904 231.123 623.694 229.202 625.004 226.669C626.314 224.049 626.969 220.949 626.969 217.368C626.969 213.787 626.314 210.774 625.004 208.329C623.694 205.796 621.904 203.875 619.633 202.565C617.45 201.255 614.917 200.6 612.035 200.6C609.24 200.6 606.708 201.255 604.437 202.565C602.254 203.875 600.463 205.796 599.066 208.329C597.756 210.774 597.101 213.787 597.101 217.368C597.101 220.949 597.756 224.049 599.066 226.669C600.463 229.202 602.254 231.123 604.437 232.433C606.708 233.743 609.24 234.398 612.035 234.398Z" fill="black"/>
<path d="M51.396 254.834C43.8853 254.834 36.6367 253.917 29.65 252.083C22.7507 250.162 17.1177 247.716 12.751 244.747L21.266 225.621C25.3707 228.241 30.0867 230.424 35.414 232.171C40.8287 233.83 46.1997 234.66 51.527 234.66C55.1077 234.66 57.9897 234.354 60.173 233.743C62.3563 233.044 63.9283 232.171 64.889 231.123C65.937 229.988 66.461 228.678 66.461 227.193C66.461 225.097 65.5003 223.438 63.579 222.215C61.6577 220.992 59.1687 219.988 56.112 219.202C53.0553 218.416 49.6493 217.63 45.894 216.844C42.226 216.058 38.5143 215.054 34.759 213.831C31.091 212.608 27.7287 211.036 24.672 209.115C21.6153 207.106 19.1263 204.53 17.205 201.386C15.2837 198.155 14.323 194.094 14.323 189.203C14.323 183.701 15.8077 178.723 18.777 174.269C21.8337 169.815 26.375 166.234 32.401 163.527C38.427 160.82 45.9377 159.466 54.933 159.466C60.959 159.466 66.854 160.165 72.618 161.562C78.4693 162.872 83.6657 164.837 88.207 167.457L80.216 186.714C75.8493 184.356 71.5263 182.609 67.247 181.474C62.9677 180.251 58.8193 179.64 54.802 179.64C51.2213 179.64 48.3393 180.033 46.156 180.819C43.9727 181.518 42.4007 182.478 41.44 183.701C40.4793 184.924 39.999 186.321 39.999 187.893C39.999 189.902 40.916 191.517 42.75 192.74C44.6713 193.875 47.1603 194.836 50.217 195.622C53.361 196.321 56.767 197.063 60.435 197.849C64.1903 198.635 67.902 199.639 71.57 200.862C75.3253 201.997 78.7313 203.569 81.788 205.578C84.8447 207.499 87.29 210.076 89.124 213.307C91.0453 216.451 92.006 220.425 92.006 225.228C92.006 230.555 90.4777 235.49 87.421 240.031C84.4517 244.485 79.954 248.066 73.928 250.773C67.9893 253.48 60.4787 254.834 51.396 254.834ZM102.808 253V155.798H127.698V253H102.808ZM143.874 253V181.998H168.764V253H143.874ZM156.319 174.138C151.777 174.138 148.109 172.872 145.315 170.339C142.52 167.806 141.123 164.662 141.123 160.907C141.123 157.152 142.52 154.008 145.315 151.475C148.109 148.942 151.777 147.676 156.319 147.676C160.86 147.676 164.528 148.899 167.323 151.344C170.117 153.702 171.515 156.759 171.515 160.514C171.515 164.444 170.117 167.719 167.323 170.339C164.615 172.872 160.947 174.138 156.319 174.138ZM215.855 254.179C209.393 254.179 203.498 252.694 198.17 249.725C192.93 246.668 188.738 242.433 185.594 237.018C182.45 231.516 180.878 224.966 180.878 217.368C180.878 209.857 182.45 203.395 185.594 197.98C188.738 192.478 192.93 188.242 198.17 185.273C203.498 182.304 209.393 180.819 215.855 180.819C221.969 180.819 227.121 182.129 231.313 184.749C235.593 187.369 238.824 191.386 241.007 196.801C243.191 202.216 244.282 209.071 244.282 217.368C244.282 225.839 243.234 232.782 241.138 238.197C239.042 243.612 235.898 247.629 231.706 250.249C227.514 252.869 222.231 254.179 215.855 254.179ZM221.095 234.398C223.89 234.398 226.379 233.743 228.562 232.433C230.833 231.123 232.623 229.202 233.933 226.669C235.243 224.049 235.898 220.949 235.898 217.368C235.898 213.787 235.243 210.774 233.933 208.329C232.623 205.796 230.833 203.875 228.562 202.565C226.379 201.255 223.89 200.6 221.095 200.6C218.213 200.6 215.637 201.255 213.366 202.565C211.183 203.875 209.436 205.796 208.126 208.329C206.816 210.774 206.161 213.787 206.161 217.368C206.161 220.949 206.816 224.049 208.126 226.669C209.436 229.202 211.183 231.123 213.366 232.433C215.637 233.743 218.213 234.398 221.095 234.398ZM236.684 253V240.817L236.815 217.368L235.505 193.919V155.798H260.395V253H236.684ZM313.613 254.179C305.229 254.179 297.893 252.607 291.605 249.463C285.404 246.232 280.557 241.865 277.064 236.363C273.658 230.774 271.955 224.442 271.955 217.368C271.955 210.294 273.614 204.006 276.933 198.504C280.339 192.915 285.011 188.592 290.95 185.535C296.889 182.391 303.57 180.819 310.993 180.819C317.98 180.819 324.355 182.26 330.119 185.142C335.883 187.937 340.468 192.085 343.874 197.587C347.28 203.089 348.983 209.77 348.983 217.63C348.983 218.503 348.939 219.508 348.852 220.643C348.765 221.778 348.677 222.826 348.59 223.787H292.391V210.687H335.359L325.927 214.355C326.014 211.124 325.403 208.329 324.093 205.971C322.87 203.613 321.124 201.779 318.853 200.469C316.67 199.159 314.093 198.504 311.124 198.504C308.155 198.504 305.535 199.159 303.264 200.469C301.081 201.779 299.378 203.657 298.155 206.102C296.932 208.46 296.321 211.255 296.321 214.486V218.285C296.321 221.778 297.02 224.791 298.417 227.324C299.902 229.857 301.998 231.822 304.705 233.219C307.412 234.529 310.644 235.184 314.399 235.184C317.892 235.184 320.862 234.704 323.307 233.743C325.84 232.695 328.329 231.123 330.774 229.027L343.874 242.651C340.468 246.406 336.276 249.288 331.298 251.297C326.32 253.218 320.425 254.179 313.613 254.179ZM360.459 253V181.998H384.17V202.696L380.633 196.801C382.729 191.474 386.135 187.5 390.851 184.88C395.567 182.173 401.287 180.819 408.012 180.819V203.22C406.876 203.045 405.872 202.958 404.999 202.958C404.213 202.871 403.339 202.827 402.379 202.827C397.313 202.827 393.209 204.224 390.065 207.019C386.921 209.726 385.349 214.18 385.349 220.381V253H360.459Z" fill="black"/>
</svg>
