<svg width="1312" height="495" viewBox="0 0 1312 495" fill="none" xmlns="http://www.w3.org/2000/svg">
<rect width="1920" height="921" transform="translate(-304 -78)" fill="white"/>
<path d="M812.231 507H931.231L712.131 17H600.131L381.731 507H497.931L541.331 402H768.831L812.231 507ZM577.731 315.9L655.431 128.3L733.131 315.9H577.731Z" fill="#FAE64D"/>
<path d="M757.293 192.819C762.795 192.819 767.686 193.954 771.965 196.225C776.332 198.408 779.738 201.814 782.183 206.443C784.716 211.072 785.982 217.054 785.982 224.39V265H761.092V228.451C761.092 223.386 760.132 219.718 758.21 217.447C756.289 215.089 753.669 213.91 750.35 213.91C747.992 213.91 745.853 214.478 743.931 215.613C742.01 216.748 740.525 218.495 739.477 220.853C738.429 223.124 737.905 226.093 737.905 229.761V265H713.015V228.451C713.015 223.386 712.055 219.718 710.133 217.447C708.299 215.089 705.679 213.91 702.273 213.91C699.828 213.91 697.645 214.478 695.723 215.613C693.889 216.748 692.405 218.495 691.269 220.853C690.221 223.124 689.697 226.093 689.697 229.761V265H664.807V193.998H688.518V213.779L683.802 208.146C686.422 203.081 690.003 199.282 694.544 196.749C699.086 194.129 704.151 192.819 709.74 192.819C716.116 192.819 721.705 194.478 726.508 197.797C731.399 201.028 734.674 206.094 736.333 212.993L728.211 211.29C730.744 205.526 734.543 201.028 739.608 197.797C744.761 194.478 750.656 192.819 757.293 192.819ZM846.363 266.179C840.337 266.179 835.185 264.869 830.905 262.249C826.626 259.542 823.351 255.524 821.08 250.197C818.897 244.782 817.805 237.883 817.805 229.499C817.805 221.028 818.853 214.128 820.949 208.801C823.045 203.386 826.189 199.369 830.381 196.749C834.661 194.129 839.988 192.819 846.363 192.819C852.826 192.819 858.677 194.347 863.917 197.404C869.245 200.373 873.437 204.609 876.493 210.111C879.637 215.526 881.209 221.988 881.209 229.499C881.209 237.01 879.637 243.516 876.493 249.018C873.437 254.52 869.245 258.756 863.917 261.725C858.677 264.694 852.826 266.179 846.363 266.179ZM801.692 290.414V193.998H825.403V206.05L825.272 229.499L826.582 253.079V290.414H801.692ZM841.123 246.398C843.918 246.398 846.407 245.743 848.59 244.433C850.861 243.123 852.651 241.202 853.961 238.669C855.359 236.136 856.057 233.08 856.057 229.499C856.057 225.918 855.359 222.862 853.961 220.329C852.651 217.796 850.861 215.875 848.59 214.565C846.407 213.255 843.918 212.6 841.123 212.6C838.329 212.6 835.796 213.255 833.525 214.565C831.342 215.875 829.552 217.796 828.154 220.329C826.844 222.862 826.189 225.918 826.189 229.499C826.189 233.08 826.844 236.136 828.154 238.669C829.552 241.202 831.342 243.123 833.525 244.433C835.796 245.743 838.329 246.398 841.123 246.398ZM928.41 266.179C920.637 266.179 913.738 264.607 907.712 261.463C901.686 258.319 896.926 253.996 893.433 248.494C890.027 242.905 888.324 236.529 888.324 229.368C888.324 222.207 890.027 215.875 893.433 210.373C896.926 204.871 901.686 200.592 907.712 197.535C913.738 194.391 920.637 192.819 928.41 192.819C936.183 192.819 943.082 194.391 949.108 197.535C955.221 200.592 959.981 204.871 963.387 210.373C966.793 215.875 968.496 222.207 968.496 229.368C968.496 236.529 966.793 242.905 963.387 248.494C959.981 253.996 955.221 258.319 949.108 261.463C943.082 264.607 936.183 266.179 928.41 266.179ZM928.41 246.398C931.292 246.398 933.825 245.743 936.008 244.433C938.279 243.123 940.069 241.202 941.379 238.669C942.689 236.049 943.344 232.949 943.344 229.368C943.344 225.787 942.689 222.774 941.379 220.329C940.069 217.796 938.279 215.875 936.008 214.565C933.825 213.255 931.292 212.6 928.41 212.6C925.615 212.6 923.083 213.255 920.812 214.565C918.629 215.875 916.838 217.796 915.441 220.329C914.131 222.774 913.476 225.787 913.476 229.368C913.476 232.949 914.131 236.049 915.441 238.669C916.838 241.202 918.629 243.123 920.812 244.433C923.083 245.743 925.615 246.398 928.41 246.398ZM1026.27 192.819C1031.77 192.819 1036.75 193.954 1041.2 196.225C1045.66 198.408 1049.15 201.814 1051.68 206.443C1054.3 211.072 1055.61 217.054 1055.61 224.39V265H1030.72V228.451C1030.72 223.386 1029.68 219.718 1027.58 217.447C1025.57 215.089 1022.73 213.91 1019.06 213.91C1016.44 213.91 1014.04 214.521 1011.86 215.744C1009.68 216.879 1007.97 218.67 1006.75 221.115C1005.53 223.56 1004.92 226.748 1004.92 230.678V265H980.026V193.998H1003.74V214.172L999.152 208.277C1001.86 203.124 1005.57 199.282 1010.29 196.749C1015 194.129 1020.33 192.819 1026.27 192.819ZM1109.34 266.179C1100.96 266.179 1093.62 264.607 1087.33 261.463C1081.13 258.232 1076.28 253.865 1072.79 248.363C1069.38 242.774 1067.68 236.442 1067.68 229.368C1067.68 222.294 1069.34 216.006 1072.66 210.504C1076.07 204.915 1080.74 200.592 1086.68 197.535C1092.62 194.391 1099.3 192.819 1106.72 192.819C1113.71 192.819 1120.08 194.26 1125.85 197.142C1131.61 199.937 1136.19 204.085 1139.6 209.587C1143.01 215.089 1144.71 221.77 1144.71 229.63C1144.71 230.503 1144.67 231.508 1144.58 232.643C1144.49 233.778 1144.4 234.826 1144.32 235.787H1088.12V222.687H1131.09L1121.65 226.355C1121.74 223.124 1121.13 220.329 1119.82 217.971C1118.6 215.613 1116.85 213.779 1114.58 212.469C1112.4 211.159 1109.82 210.504 1106.85 210.504C1103.88 210.504 1101.26 211.159 1098.99 212.469C1096.81 213.779 1095.1 215.657 1093.88 218.102C1092.66 220.46 1092.05 223.255 1092.05 226.486V230.285C1092.05 233.778 1092.75 236.791 1094.14 239.324C1095.63 241.857 1097.72 243.822 1100.43 245.219C1103.14 246.529 1106.37 247.184 1110.13 247.184C1113.62 247.184 1116.59 246.704 1119.03 245.743C1121.57 244.695 1124.06 243.123 1126.5 241.027L1139.6 254.651C1136.19 258.406 1132 261.288 1127.02 263.297C1122.05 265.218 1116.15 266.179 1109.34 266.179ZM1202.43 192.819C1207.93 192.819 1212.91 193.954 1217.36 196.225C1221.82 198.408 1225.31 201.814 1227.84 206.443C1230.46 211.072 1231.77 217.054 1231.77 224.39V265H1206.88V228.451C1206.88 223.386 1205.83 219.718 1203.74 217.447C1201.73 215.089 1198.89 213.91 1195.22 213.91C1192.6 213.91 1190.2 214.521 1188.02 215.744C1185.84 216.879 1184.13 218.67 1182.91 221.115C1181.69 223.56 1181.08 226.748 1181.08 230.678V265H1156.19V193.998H1179.9V214.172L1175.31 208.277C1178.02 203.124 1181.73 199.282 1186.45 196.749C1191.16 194.129 1196.49 192.819 1202.43 192.819ZM1279.1 266.179C1270.02 266.179 1262.94 263.952 1257.88 259.498C1252.81 254.957 1250.28 248.145 1250.28 239.062V178.147H1275.17V238.8C1275.17 241.333 1275.87 243.341 1277.27 244.826C1278.66 246.223 1280.45 246.922 1282.64 246.922C1285.61 246.922 1288.14 246.18 1290.24 244.695L1296.39 262.118C1294.3 263.515 1291.72 264.52 1288.66 265.131C1285.61 265.83 1282.42 266.179 1279.1 266.179ZM1239.93 215.22V196.618H1291.42V215.22H1239.93Z" fill="black"/>
<path d="M528.889 266.834C521.64 266.834 514.916 265.699 508.715 263.428C502.602 261.07 497.274 257.751 492.733 253.472C488.279 249.193 484.786 244.171 482.253 238.407C479.72 232.556 478.454 226.137 478.454 219.15C478.454 212.163 479.72 205.788 482.253 200.024C484.786 194.173 488.279 189.107 492.733 184.828C497.274 180.549 502.602 177.274 508.715 175.003C514.916 172.645 521.64 171.466 528.889 171.466C537.36 171.466 544.915 172.951 551.552 175.92C558.277 178.889 563.866 183.169 568.32 188.758L551.814 203.692C548.845 200.199 545.57 197.535 541.989 195.701C538.496 193.867 534.566 192.95 530.199 192.95C526.444 192.95 522.994 193.561 519.85 194.784C516.706 196.007 513.999 197.797 511.728 200.155C509.545 202.426 507.798 205.177 506.488 208.408C505.265 211.639 504.654 215.22 504.654 219.15C504.654 223.08 505.265 226.661 506.488 229.892C507.798 233.123 509.545 235.918 511.728 238.276C513.999 240.547 516.706 242.293 519.85 243.516C522.994 244.739 526.444 245.35 530.199 245.35C534.566 245.35 538.496 244.433 541.989 242.599C545.57 240.765 548.845 238.101 551.814 234.608L568.32 249.542C563.866 255.044 558.277 259.323 551.552 262.38C544.915 265.349 537.36 266.834 528.889 266.834ZM612.035 266.179C604.262 266.179 597.363 264.607 591.337 261.463C585.311 258.319 580.551 253.996 577.058 248.494C573.652 242.905 571.949 236.529 571.949 229.368C571.949 222.207 573.652 215.875 577.058 210.373C580.551 204.871 585.311 200.592 591.337 197.535C597.363 194.391 604.262 192.819 612.035 192.819C619.808 192.819 626.707 194.391 632.733 197.535C638.846 200.592 643.606 204.871 647.012 210.373C650.418 215.875 652.121 222.207 652.121 229.368C652.121 236.529 650.418 242.905 647.012 248.494C643.606 253.996 638.846 258.319 632.733 261.463C626.707 264.607 619.808 266.179 612.035 266.179ZM612.035 246.398C614.917 246.398 617.45 245.743 619.633 244.433C621.904 243.123 623.694 241.202 625.004 238.669C626.314 236.049 626.969 232.949 626.969 229.368C626.969 225.787 626.314 222.774 625.004 220.329C623.694 217.796 621.904 215.875 619.633 214.565C617.45 213.255 614.917 212.6 612.035 212.6C609.24 212.6 606.708 213.255 604.437 214.565C602.254 215.875 600.463 217.796 599.066 220.329C597.756 222.774 597.101 225.787 597.101 229.368C597.101 232.949 597.756 236.049 599.066 238.669C600.463 241.202 602.254 243.123 604.437 244.433C606.708 245.743 609.24 246.398 612.035 246.398Z" fill="black"/>
<path d="M51.396 266.834C43.8853 266.834 36.6367 265.917 29.65 264.083C22.7507 262.162 17.1177 259.716 12.751 256.747L21.266 237.621C25.3707 240.241 30.0867 242.424 35.414 244.171C40.8287 245.83 46.1997 246.66 51.527 246.66C55.1077 246.66 57.9897 246.354 60.173 245.743C62.3563 245.044 63.9283 244.171 64.889 243.123C65.937 241.988 66.461 240.678 66.461 239.193C66.461 237.097 65.5003 235.438 63.579 234.215C61.6577 232.992 59.1687 231.988 56.112 231.202C53.0553 230.416 49.6493 229.63 45.894 228.844C42.226 228.058 38.5143 227.054 34.759 225.831C31.091 224.608 27.7287 223.036 24.672 221.115C21.6153 219.106 19.1263 216.53 17.205 213.386C15.2837 210.155 14.323 206.094 14.323 201.203C14.323 195.701 15.8077 190.723 18.777 186.269C21.8337 181.815 26.375 178.234 32.401 175.527C38.427 172.82 45.9377 171.466 54.933 171.466C60.959 171.466 66.854 172.165 72.618 173.562C78.4693 174.872 83.6657 176.837 88.207 179.457L80.216 198.714C75.8493 196.356 71.5263 194.609 67.247 193.474C62.9677 192.251 58.8193 191.64 54.802 191.64C51.2213 191.64 48.3393 192.033 46.156 192.819C43.9727 193.518 42.4007 194.478 41.44 195.701C40.4793 196.924 39.999 198.321 39.999 199.893C39.999 201.902 40.916 203.517 42.75 204.74C44.6713 205.875 47.1603 206.836 50.217 207.622C53.361 208.321 56.767 209.063 60.435 209.849C64.1903 210.635 67.902 211.639 71.57 212.862C75.3253 213.997 78.7313 215.569 81.788 217.578C84.8447 219.499 87.29 222.076 89.124 225.307C91.0453 228.451 92.006 232.425 92.006 237.228C92.006 242.555 90.4777 247.49 87.421 252.031C84.4517 256.485 79.954 260.066 73.928 262.773C67.9893 265.48 60.4787 266.834 51.396 266.834ZM102.808 265V167.798H127.698V265H102.808ZM143.874 265V193.998H168.764V265H143.874ZM156.319 186.138C151.777 186.138 148.109 184.872 145.315 182.339C142.52 179.806 141.123 176.662 141.123 172.907C141.123 169.152 142.52 166.008 145.315 163.475C148.109 160.942 151.777 159.676 156.319 159.676C160.86 159.676 164.528 160.899 167.323 163.344C170.117 165.702 171.515 168.759 171.515 172.514C171.515 176.444 170.117 179.719 167.323 182.339C164.615 184.872 160.947 186.138 156.319 186.138ZM215.855 266.179C209.393 266.179 203.498 264.694 198.17 261.725C192.93 258.668 188.738 254.433 185.594 249.018C182.45 243.516 180.878 236.966 180.878 229.368C180.878 221.857 182.45 215.395 185.594 209.98C188.738 204.478 192.93 200.242 198.17 197.273C203.498 194.304 209.393 192.819 215.855 192.819C221.969 192.819 227.121 194.129 231.313 196.749C235.593 199.369 238.824 203.386 241.007 208.801C243.191 214.216 244.282 221.071 244.282 229.368C244.282 237.839 243.234 244.782 241.138 250.197C239.042 255.612 235.898 259.629 231.706 262.249C227.514 264.869 222.231 266.179 215.855 266.179ZM221.095 246.398C223.89 246.398 226.379 245.743 228.562 244.433C230.833 243.123 232.623 241.202 233.933 238.669C235.243 236.049 235.898 232.949 235.898 229.368C235.898 225.787 235.243 222.774 233.933 220.329C232.623 217.796 230.833 215.875 228.562 214.565C226.379 213.255 223.89 212.6 221.095 212.6C218.213 212.6 215.637 213.255 213.366 214.565C211.183 215.875 209.436 217.796 208.126 220.329C206.816 222.774 206.161 225.787 206.161 229.368C206.161 232.949 206.816 236.049 208.126 238.669C209.436 241.202 211.183 243.123 213.366 244.433C215.637 245.743 218.213 246.398 221.095 246.398ZM236.684 265V252.817L236.815 229.368L235.505 205.919V167.798H260.395V265H236.684ZM313.613 266.179C305.229 266.179 297.893 264.607 291.605 261.463C285.404 258.232 280.557 253.865 277.064 248.363C273.658 242.774 271.955 236.442 271.955 229.368C271.955 222.294 273.614 216.006 276.933 210.504C280.339 204.915 285.011 200.592 290.95 197.535C296.889 194.391 303.57 192.819 310.993 192.819C317.98 192.819 324.355 194.26 330.119 197.142C335.883 199.937 340.468 204.085 343.874 209.587C347.28 215.089 348.983 221.77 348.983 229.63C348.983 230.503 348.939 231.508 348.852 232.643C348.765 233.778 348.677 234.826 348.59 235.787H292.391V222.687H335.359L325.927 226.355C326.014 223.124 325.403 220.329 324.093 217.971C322.87 215.613 321.124 213.779 318.853 212.469C316.67 211.159 314.093 210.504 311.124 210.504C308.155 210.504 305.535 211.159 303.264 212.469C301.081 213.779 299.378 215.657 298.155 218.102C296.932 220.46 296.321 223.255 296.321 226.486V230.285C296.321 233.778 297.02 236.791 298.417 239.324C299.902 241.857 301.998 243.822 304.705 245.219C307.412 246.529 310.644 247.184 314.399 247.184C317.892 247.184 320.862 246.704 323.307 245.743C325.84 244.695 328.329 243.123 330.774 241.027L343.874 254.651C340.468 258.406 336.276 261.288 331.298 263.297C326.32 265.218 320.425 266.179 313.613 266.179ZM360.459 265V193.998H384.17V214.696L380.633 208.801C382.729 203.474 386.135 199.5 390.851 196.88C395.567 194.173 401.287 192.819 408.012 192.819V215.22C406.876 215.045 405.872 214.958 404.999 214.958C404.213 214.871 403.339 214.827 402.379 214.827C397.313 214.827 393.209 216.224 390.065 219.019C386.921 221.726 385.349 226.18 385.349 232.381V265H360.459Z" fill="black"/>
</svg>
